<svg width="188" height="22" viewBox="0 0 188 22" fill="none" xmlns="http://www.w3.org/2000/svg">
<path d="M14.52 6.08C13.8533 5.97333 12.8933 5.92 11.64 5.92C10.8133 5.92 10.2267 5.97333 9.88 6.08V0.28C11.7733 0.306666 13.7333 0.546666 15.76 1V6.2L14.52 6.08ZM9.6 21.32C7.52 21.32 5.86667 21.0667 4.64 20.56C3.41333 20.0533 2.50667 19.3067 1.92 18.32C1.38667 17.4667 1.04 16.4667 0.88 15.32C0.746667 14.1733 0.68 12.68 0.68 10.84C0.68 9.16 0.746667 7.76 0.88 6.64C1.01333 5.52 1.29333 4.53333 1.72 3.68C2.22667 2.69333 2.98667 1.93333 4 1.4C5.04 0.839999 6.44 0.493332 8.2 0.359999V10.8C8.2 11.9733 8.22667 12.8533 8.28 13.44C8.36 14.0267 8.50667 14.48 8.72 14.8C8.96 15.12 9.29333 15.3467 9.72 15.48C10.1733 15.6133 10.8133 15.68 11.64 15.68C13.0533 15.68 14.0267 15.64 14.56 15.56L15.92 15.4V20.6C13.9467 21.08 11.84 21.32 9.6 21.32ZM31.2738 10.84C31.2738 9.48 31.2604 8.57333 31.2338 8.12C31.2071 7.48 31.1271 7 30.9938 6.68C30.8604 6.33333 30.6471 6.12 30.3538 6.04C30.0338 5.96 29.5938 5.92 29.0338 5.92H28.4738V0.28H29.0338C31.3538 0.28 33.1671 0.466666 34.4738 0.84C35.7804 1.18667 36.7538 1.77333 37.3938 2.6C37.9804 3.34667 38.3538 4.34667 38.5138 5.6C38.7004 6.82667 38.7938 8.57333 38.7938 10.84C38.7938 12.9467 38.7271 14.5867 38.5938 15.76C38.4871 16.9067 38.2071 17.8533 37.7538 18.6C37.2471 19.4267 36.4871 20.0533 35.4738 20.48C34.4604 20.88 33.0604 21.1333 31.2738 21.24V10.84ZM29.0338 21.32C26.7138 21.32 24.9004 21.1467 23.5938 20.8C22.2871 20.4533 21.3138 19.8667 20.6738 19.04C20.0871 18.2933 19.7004 17.3067 19.5138 16.08C19.3538 14.8533 19.2738 13.1067 19.2738 10.84C19.2738 8.76 19.3404 7.13333 19.4738 5.96C19.6071 4.78667 19.9004 3.81333 20.3538 3.04C20.8338 2.18667 21.5804 1.56 22.5938 1.16C23.6071 0.733332 25.0071 0.466666 26.7938 0.359999V10.84C26.7938 12.2 26.8071 13.0933 26.8338 13.52C26.8604 14.16 26.9404 14.64 27.0738 14.96C27.2071 15.28 27.4338 15.48 27.7538 15.56C28.0204 15.64 28.4471 15.68 29.0338 15.68H29.5938V21.32H29.0338ZM53.9244 8.56C53.9244 7.92 53.8577 7.42667 53.7244 7.08C53.6177 6.81333 53.4444 6.65333 53.2044 6.6C52.991 6.52 52.6044 6.48 52.0444 6.48H51.8444V1.48C52.8844 0.706666 54.3244 0.319999 56.1644 0.319999C56.991 0.319999 57.711 0.426666 58.3244 0.64C58.9377 0.826666 59.4577 1.17333 59.8844 1.68C60.8444 2.85333 61.3244 5.04 61.3244 8.24V21H53.9244V8.56ZM65.0844 8.56C65.0844 7.92 65.0177 7.42667 64.8844 7.08C64.7777 6.81333 64.6044 6.65333 64.3644 6.6C64.151 6.52 63.7644 6.48 63.2044 6.48H63.0044C62.951 5.78667 62.871 5.06667 62.7644 4.32C62.551 3.25333 62.3244 2.48 62.0844 2C63.2044 0.879999 64.8044 0.319999 66.8844 0.319999C69.151 0.319999 70.6977 1.05333 71.5244 2.52C71.8977 3.16 72.151 3.94667 72.2844 4.88C72.4177 5.78667 72.4844 6.90667 72.4844 8.24V21H65.0844V8.56ZM42.7644 0.599998H50.1644V21H42.7644V0.599998ZM88.2213 8.56C88.2213 7.92 88.1546 7.42667 88.0213 7.08C87.9146 6.81333 87.7413 6.65333 87.5013 6.6C87.2879 6.52 86.9013 6.48 86.3413 6.48H86.1413V1.48C87.1813 0.706666 88.6213 0.319999 90.4613 0.319999C91.2879 0.319999 92.0079 0.426666 92.6213 0.64C93.2346 0.826666 93.7546 1.17333 94.1813 1.68C95.1413 2.85333 95.6213 5.04 95.6213 8.24V21H88.2213V8.56ZM99.3813 8.56C99.3813 7.92 99.3146 7.42667 99.1813 7.08C99.0746 6.81333 98.9013 6.65333 98.6613 6.6C98.4479 6.52 98.0613 6.48 97.5013 6.48H97.3013C97.2479 5.78667 97.1679 5.06667 97.0613 4.32C96.8479 3.25333 96.6213 2.48 96.3813 2C97.5013 0.879999 99.1013 0.319999 101.181 0.319999C103.448 0.319999 104.995 1.05333 105.821 2.52C106.195 3.16 106.448 3.94667 106.581 4.88C106.715 5.78667 106.781 6.90667 106.781 8.24V21H99.3813V8.56ZM77.0613 0.599998H84.4613V21H77.0613V0.599998ZM119.798 8.8H122.598C122.598 7.30667 122.451 6.34667 122.158 5.92C121.998 5.68 121.785 5.53333 121.518 5.48C121.251 5.4 120.865 5.36 120.358 5.36H119.798V0.28H120.358C122.651 0.28 124.411 0.466666 125.638 0.84C126.891 1.21333 127.811 1.82667 128.398 2.68C128.931 3.42667 129.251 4.38667 129.358 5.56C129.491 6.73333 129.558 8.49333 129.558 10.84V12.44H119.798V8.8ZM121.158 21.32C118.705 21.32 116.771 21.12 115.358 20.72C113.971 20.2933 112.931 19.6267 112.238 18.72C111.625 17.92 111.225 16.9333 111.038 15.76C110.851 14.56 110.758 12.92 110.758 10.84C110.758 8.92 110.825 7.4 110.958 6.28C111.091 5.13333 111.371 4.16 111.798 3.36C112.278 2.48 113.011 1.8 113.998 1.32C115.011 0.813332 116.385 0.493332 118.118 0.359999V12.44C118.118 13.3467 118.158 14 118.238 14.4C118.318 14.7733 118.505 15.0533 118.798 15.24C119.118 15.4533 119.611 15.5733 120.278 15.6C121.131 15.6533 122.038 15.68 122.998 15.68C124.705 15.68 125.945 15.64 126.718 15.56L128.758 15.4V20.56C127.691 20.88 126.225 21.0933 124.358 21.2C123.451 21.28 122.385 21.32 121.158 21.32ZM142.704 1.76C143.264 1.22666 143.917 0.853332 144.664 0.64C145.437 0.4 146.384 0.28 147.504 0.28V6.96C146.304 6.96 145.317 7.04 144.544 7.2C143.797 7.36 143.184 7.64 142.704 8.04V1.76ZM133.624 0.599998H141.024V21H133.624V0.599998ZM163.661 6.08C162.994 5.97333 162.034 5.92 160.781 5.92C159.954 5.92 159.367 5.97333 159.021 6.08V0.28C160.914 0.306666 162.874 0.546666 164.901 1V6.2L163.661 6.08ZM158.741 21.32C156.661 21.32 155.007 21.0667 153.781 20.56C152.554 20.0533 151.647 19.3067 151.061 18.32C150.527 17.4667 150.181 16.4667 150.021 15.32C149.887 14.1733 149.821 12.68 149.821 10.84C149.821 9.16 149.887 7.76 150.021 6.64C150.154 5.52 150.434 4.53333 150.861 3.68C151.367 2.69333 152.127 1.93333 153.141 1.4C154.181 0.839999 155.581 0.493332 157.341 0.359999V10.8C157.341 11.9733 157.367 12.8533 157.421 13.44C157.501 14.0267 157.647 14.48 157.861 14.8C158.101 15.12 158.434 15.3467 158.861 15.48C159.314 15.6133 159.954 15.68 160.781 15.68C162.194 15.68 163.167 15.64 163.701 15.56L165.061 15.4V20.6C163.087 21.08 160.981 21.32 158.741 21.32ZM177.454 8.8H180.254C180.254 7.30667 180.108 6.34667 179.814 5.92C179.654 5.68 179.441 5.53333 179.174 5.48C178.908 5.4 178.521 5.36 178.014 5.36H177.454V0.28H178.014C180.308 0.28 182.068 0.466666 183.294 0.84C184.548 1.21333 185.468 1.82667 186.054 2.68C186.588 3.42667 186.908 4.38667 187.014 5.56C187.148 6.73333 187.214 8.49333 187.214 10.84V12.44H177.454V8.8ZM178.814 21.32C176.361 21.32 174.428 21.12 173.014 20.72C171.628 20.2933 170.588 19.6267 169.894 18.72C169.281 17.92 168.881 16.9333 168.694 15.76C168.508 14.56 168.414 12.92 168.414 10.84C168.414 8.92 168.481 7.4 168.614 6.28C168.748 5.13333 169.028 4.16 169.454 3.36C169.934 2.48 170.668 1.8 171.654 1.32C172.668 0.813332 174.041 0.493332 175.774 0.359999V12.44C175.774 13.3467 175.814 14 175.894 14.4C175.974 14.7733 176.161 15.0533 176.454 15.24C176.774 15.4533 177.268 15.5733 177.934 15.6C178.788 15.6533 179.694 15.68 180.654 15.68C182.361 15.68 183.601 15.64 184.374 15.56L186.414 15.4V20.56C185.348 20.88 183.881 21.0933 182.014 21.2C181.108 21.28 180.041 21.32 178.814 21.32Z" fill="#5D5D6D"/>
</svg>
